<svg xmlns="http://www.w3.org/2000/svg" xmlns:xlink="http://www.w3.org/1999/xlink" width="529pt" height="524pt" viewBox="0 0 529.03 524"><g id="graph0" class="graph" transform="scale(1 1) rotate(0) translate(4 520)"><title>fsm</title><polygon fill="#fff" stroke="none" points="-4 4 -4 -520 525.027 -520 525.027 4 -4 4"/><g id="node1" class="node"><title>INIT</title><ellipse cx="424.027" cy="-498" fill="none" stroke="#000" rx="28.695" ry="18"/><text x="424.027" y="-494.3" font-family="Times,serif" font-size="14" text-anchor="middle">INIT</text></g><g id="node2" class="node"><title>PREFLIGHT</title><ellipse cx="283.027" cy="-411" fill="none" stroke="#000" rx="57.69" ry="18"/><text x="283.027" y="-407.3" font-family="Times,serif" font-size="14" text-anchor="middle">PREFLIGHT</text></g><g id="edge1" class="edge"><title>INIT-&gt;PREFLIGHT</title><path fill="none" stroke="#000" d="M404.125,-485.002C381.618,-471.434 344.571,-449.1 317.37,-432.703"/><polygon fill="#000" stroke="#000" points="318.929 -429.556 308.558 -427.391 315.315 -435.551 318.929 -429.556"/><text x="388.527" y="-450.8" font-family="Times,serif" font-size="14" text-anchor="middle">initialized</text></g><g id="node3" class="node"><title>ERROR</title><ellipse cx="326.027" cy="-18" fill="none" stroke="#000" rx="40.094" ry="18"/><text x="326.027" y="-14.3" font-family="Times,serif" font-size="14" text-anchor="middle">ERROR</text></g><g id="edge2" class="edge"><title>INIT-&gt;ERROR</title><path fill="none" stroke="#000" d="M443.899,-484.636C464.594,-470.053 494.027,-443.734 494.027,-412 494.027,-412 494.027,-412 494.027,-119 494.027,-62.635 423.338,-37.3173 373.667,-26.4848"/><polygon fill="#000" stroke="#000" points="374.229 -23.027 363.73 -24.447 372.823 -29.885 374.229 -23.027"/><text x="507.527" y="-254.3" font-family="Times,serif" font-size="14" text-anchor="middle">error</text></g><g id="edge3" class="edge"><title>PREFLIGHT-&gt;ERROR</title><path fill="none" stroke="#000" d="M330.68,-400.533C376.557,-388.318 439.027,-362.116 439.027,-310 439.027,-310 439.027,-310 439.027,-119 439.027,-78.4665 397.748,-50.3999 365.089,-34.5371"/><polygon fill="#000" stroke="#000" points="366.262 -31.223 355.717 -30.196 363.32 -37.575 366.262 -31.223"/><text x="452.527" y="-203.3" font-family="Times,serif" font-size="14" text-anchor="middle">error</text></g><g id="node4" class="node"><title>CALIBRATING</title><ellipse cx="74.027" cy="-309" fill="none" stroke="#000" rx="70.388" ry="18"/><text x="74.027" y="-305.3" font-family="Times,serif" font-size="14" text-anchor="middle">CALIBRATING</text></g><g id="edge5" class="edge"><title>PREFLIGHT-&gt;CALIBRATING</title><path fill="none" stroke="#000" d="M225.87,-408.212C171.495,-405.181 95.2185,-397.013 76.0274,-375 67.217,-364.894 66.15,-350.178 67.5383,-337.303"/><polygon fill="#000" stroke="#000" points="71.053 -337.487 69.166 -327.062 64.139 -336.389 71.053 -337.487"/><text x="128.527" y="-363.8" font-family="Times,serif" font-size="14" text-anchor="middle">arm requested</text><text x="128.527" y="-348.8" font-family="Times,serif" font-size="14" text-anchor="middle">&amp; calibrate on arm</text></g><g id="node5" class="node"><title>ARMED</title><ellipse cx="193.027" cy="-207" fill="none" stroke="#000" rx="42.793" ry="18"/><text x="193.027" y="-203.3" font-family="Times,serif" font-size="14" text-anchor="middle">ARMED</text></g><g id="edge9" class="edge"><title>PREFLIGHT-&gt;ARMED</title><path fill="none" stroke="#000" d="M263.06,-393.836C245.702,-378.561 221.445,-354.012 209.027,-327 195.527,-297.632 192.511,-260.184 192.231,-235.218"/><polygon fill="#000" stroke="#000" points="195.732 -235.031 192.262 -225.021 188.732 -235.01 195.732 -235.031"/><text x="235.027" y="-312.8" font-family="Times,serif" font-size="14" text-anchor="middle">arm</text><text x="235.027" y="-297.8" font-family="Times,serif" font-size="14" text-anchor="middle">requested</text></g><g id="edge4" class="edge"><title>ERROR-&gt;PREFLIGHT</title><path fill="none" stroke="#000" d="M338.589,-35.3814C342.421,-41.0308 346.33,-47.5621 349.027,-54 360.447,-81.2557 363.027,-89.4486 363.027,-119 363.027,-310 363.027,-310 363.027,-310 363.027,-342.276 337.301,-370.104 315.026,-388.149"/><polygon fill="#000" stroke="#000" points="312.791 -385.453 307.03 -394.345 317.079 -390.987 312.791 -385.453"/><text x="383.027" y="-210.8" font-family="Times,serif" font-size="14" text-anchor="middle">errors</text><text x="383.027" y="-195.8" font-family="Times,serif" font-size="14" text-anchor="middle">cleared</text></g><g id="edge6" class="edge"><title>CALIBRATING-&gt;PREFLIGHT</title><path fill="none" stroke="#000" d="M31.0521,-323.273C21.1531,-328.437 11.8354,-335.478 6.02738,-345 -0.915922,-356.383 -2.78999,-364.998 6.02738,-375 19.7365,-390.55 138.816,-400.947 216.319,-406.134"/><polygon fill="#000" stroke="#000" points="216.286 -409.639 226.494 -406.801 216.744 -402.654 216.286 -409.639"/><text x="35.027" y="-363.8" font-family="Times,serif" font-size="14" text-anchor="middle">calibration</text><text x="35.027" y="-348.8" font-family="Times,serif" font-size="14" text-anchor="middle">failed</text></g><g id="edge7" class="edge"><title>CALIBRATING-&gt;ERROR</title><path fill="none" stroke="#000" d="M72.3315,-290.725C68.7827,-243.602 66.3227,-112.46 141.027,-54 161.653,-37.8598 228.942,-28.2121 276.396,-23.2529"/><polygon fill="#000" stroke="#000" points="276.896 -26.72 286.495 -22.236 276.195 -19.756 276.896 -26.72"/><text x="95.527" y="-159.8" font-family="Times,serif" font-size="14" text-anchor="middle">error</text></g><g id="edge8" class="edge"><title>CALIBRATING-&gt;ARMED</title><path fill="none" stroke="#000" d="M83.7181,-291.056C92.5263,-276.814 106.627,-256.653 123.027,-243 131.902,-235.612 142.598,-229.272 152.929,-224.099"/><polygon fill="#000" stroke="#000" points="154.715 -227.126 162.251 -219.679 151.716 -220.8 154.715 -227.126"/><text x="152.027" y="-261.8" font-family="Times,serif" font-size="14" text-anchor="middle">calibration</text><text x="152.027" y="-246.8" font-family="Times,serif" font-size="14" text-anchor="middle">complete</text></g><g id="edge10" class="edge"><title>ARMED-&gt;PREFLIGHT</title><path fill="none" stroke="#000" d="M210.146,-223.736C225.928,-239.265 248.713,-264.472 261.027,-291 274.667,-320.382 279.857,-357.538 281.828,-382.446"/><polygon fill="#000" stroke="#000" points="278.35 -382.889 282.508 -392.634 285.334 -382.422 278.35 -382.889"/><text x="299.027" y="-312.8" font-family="Times,serif" font-size="14" text-anchor="middle">disarm</text><text x="299.027" y="-297.8" font-family="Times,serif" font-size="14" text-anchor="middle">requested</text></g><g id="edge11" class="edge"><title>ARMED-&gt;ERROR</title><path fill="none" stroke="#000" d="M171.872,-191.02C145.779,-170.658 107.274,-133.202 128.027,-102 161.008,-52.413 229.949,-32.3918 277.114,-24.3466"/><polygon fill="#000" stroke="#000" points="277.793 -27.783 287.122 -22.762 276.698 -20.869 277.793 -27.783"/><text x="175.027" y="-123.8" font-family="Times,serif" font-size="14" text-anchor="middle">disarm requested</text><text x="175.027" y="-108.8" font-family="Times,serif" font-size="14" text-anchor="middle">&amp; error</text></g><g id="node6" class="node"><title>FAILSAFE</title><ellipse cx="283.027" cy="-120" fill="none" stroke="#000" rx="51.991" ry="18"/><text x="283.027" y="-116.3" font-family="Times,serif" font-size="14" text-anchor="middle">FAILSAFE</text></g><g id="edge12" class="edge"><title>ARMED-&gt;FAILSAFE</title><path fill="none" stroke="#000" d="M225.638,-195.08C238.32,-189.508 252.144,-181.619 262.027,-171 268.138,-164.434 272.609,-155.831 275.814,-147.616"/><polygon fill="#000" stroke="#000" points="279.195 -148.546 279.121 -137.951 272.572 -146.279 279.195 -148.546"/><text x="293.027" y="-159.8" font-family="Times,serif" font-size="14" text-anchor="middle">RC lost</text></g><g id="edge14" class="edge"><title>FAILSAFE-&gt;ERROR</title><path fill="none" stroke="#000" d="M284.449,-101.985C286.099,-88.431 289.615,-69.2646 297.027,-54 298.927,-50.0869 301.354,-46.2361 303.992,-42.6023"/><polygon fill="#000" stroke="#000" points="306.883 -44.59 310.383 -34.59 301.411 -40.225 306.883 -44.59"/><text x="323.027" y="-72.8" font-family="Times,serif" font-size="14" text-anchor="middle">disarm</text><text x="323.027" y="-57.8" font-family="Times,serif" font-size="14" text-anchor="middle">requested</text></g><g id="edge13" class="edge"><title>FAILSAFE-&gt;ARMED</title><path fill="none" stroke="#000" d="M242.078,-131.259C219.811,-137.755 195.51,-146.668 189.027,-156 184.467,-162.564 183.691,-170.848 184.572,-178.775"/><polygon fill="#000" stroke="#000" points="181.177 -179.658 186.505 -188.816 188.051 -178.335 181.177 -179.658"/><text x="223.527" y="-159.8" font-family="Times,serif" font-size="14" text-anchor="middle">RC regained</text></g></g></svg>